<svg width="187" height="42" viewBox="0 0 187 42" fill="none" xmlns="http://www.w3.org/2000/svg">
<path d="M43.99 23.734V3.89H48.951V23.57C48.951 26.604 48.0626 29.023 46.286 30.827C44.5093 32.631 42.104 33.533 39.07 33.533C36.0906 33.533 33.699 32.6993 31.895 31.032C30.1183 29.3647 29.23 27.0687 29.23 24.144L29.353 22.258H34.355C34.273 22.7227 34.232 23.3513 34.232 24.144C34.232 25.6473 34.6556 26.85 35.503 27.752C36.3776 28.654 37.5666 29.105 39.07 29.105C40.6553 29.105 41.8716 28.6403 42.719 27.711C43.5663 26.7543 43.99 25.4287 43.99 23.734Z" fill="black"/>
<path d="M74.0833 23.775H57.8883C58.0797 25.4697 58.6947 26.8227 59.7333 27.834C60.772 28.818 62.1387 29.31 63.8333 29.31C64.954 29.31 65.9653 29.0367 66.8673 28.49C67.7693 27.9433 68.4117 27.2053 68.7943 26.276H73.7143C73.0583 28.4353 71.8283 30.1847 70.0243 31.524C68.2477 32.836 66.143 33.492 63.7103 33.492C60.5397 33.492 57.9703 32.4397 56.0023 30.335C54.0617 28.2303 53.0913 25.5653 53.0913 22.34C53.0913 19.1967 54.0753 16.559 56.0433 14.427C58.0113 12.295 60.5533 11.229 63.6693 11.229C66.7853 11.229 69.3 12.2813 71.2133 14.386C73.154 16.4633 74.1243 19.0873 74.1243 22.258L74.0833 23.775ZM63.6693 15.206C62.1387 15.206 60.8677 15.657 59.8563 16.559C58.845 17.461 58.2163 18.6637 57.9703 20.167H69.2863C69.0677 18.6637 68.4663 17.461 67.4823 16.559C66.4983 15.657 65.2273 15.206 63.6693 15.206Z" fill="black"/>
<path d="M92.1189 11.721H98.2689L90.0279 20.7L98.8839 33H93.0619L86.7889 23.898L83.0579 27.916V33H78.1789V2.25H83.0579V22.094L92.1189 11.721Z" fill="black"/>
<path d="M103.125 41.528L106.733 32.836L98.1644 11.721H103.371L109.152 27.137L115.015 11.721H120.099L107.963 41.528H103.125Z" fill="black"/>
<path d="M122.761 26.645V2.25H127.64V26.727C127.64 27.8203 128.242 28.367 129.444 28.367L130.305 28.326V32.959C129.841 33.041 129.349 33.082 128.829 33.082C126.725 33.082 125.18 32.549 124.196 31.483C123.24 30.417 122.761 28.8043 122.761 26.645Z" fill="black"/>
<path d="M133.963 26.645V2.25H138.842V26.727C138.842 27.8203 139.443 28.367 140.646 28.367L141.507 28.326V32.959C141.042 33.041 140.55 33.082 140.031 33.082C137.926 33.082 136.382 32.549 135.398 31.483C134.441 30.417 133.963 28.8043 133.963 26.645Z" fill="black"/>
<path d="M143.114 16.067V11.721H151.109V33H146.23V16.067H143.114ZM148.69 8.154C147.788 8.154 147.05 7.88066 146.476 7.334C145.902 6.76 145.615 6.03567 145.615 5.161C145.615 4.259 145.902 3.521 146.476 2.947C147.05 2.373 147.788 2.086 148.69 2.086C149.565 2.086 150.289 2.373 150.863 2.947C151.437 3.521 151.724 4.259 151.724 5.161C151.724 6.03567 151.437 6.76 150.863 7.334C150.289 7.88066 149.565 8.154 148.69 8.154Z" fill="black"/>
<path d="M163.905 33.492C160.981 33.492 158.78 32.8087 157.304 31.442C155.828 30.0753 155.022 28.326 154.885 26.194H159.6C159.655 27.178 160.079 27.9707 160.871 28.572C161.664 29.1733 162.771 29.474 164.192 29.474C165.45 29.474 166.42 29.2553 167.103 28.818C167.787 28.3807 168.128 27.793 168.128 27.055C168.128 26.235 167.705 25.6337 166.857 25.251C166.037 24.841 165.026 24.5403 163.823 24.349C162.621 24.1577 161.418 23.9117 160.215 23.611C159.013 23.283 157.988 22.6543 157.14 21.725C156.32 20.7957 155.91 19.5247 155.91 17.912C155.91 16.0533 156.676 14.4817 158.206 13.197C159.764 11.885 161.814 11.229 164.356 11.229C165.805 11.229 167.076 11.4613 168.169 11.926C169.29 12.3633 170.151 12.951 170.752 13.689C171.381 14.427 171.846 15.1787 172.146 15.944C172.474 16.7093 172.666 17.4883 172.72 18.281H168.046C167.964 17.4337 167.595 16.7093 166.939 16.108C166.311 15.5067 165.409 15.206 164.233 15.206C163.058 15.206 162.156 15.4383 161.527 15.903C160.899 16.3403 160.584 16.9553 160.584 17.748C160.584 18.486 160.994 19.0463 161.814 19.429C162.662 19.8117 163.687 20.0987 164.889 20.29C166.092 20.4813 167.295 20.7547 168.497 21.11C169.7 21.438 170.711 22.0803 171.531 23.037C172.379 23.9937 172.802 25.2647 172.802 26.85C172.802 28.7633 172.023 30.3487 170.465 31.606C168.935 32.8633 166.748 33.492 163.905 33.492Z" fill="black"/>
<path d="M186.33 28.654V32.877C185.729 33.041 184.882 33.123 183.788 33.123C179.634 33.123 177.556 31.032 177.556 26.85V15.616H174.317V11.721H177.556V6.186H182.435V11.721H186.412V15.616H182.435V26.358C182.435 28.0253 183.228 28.859 184.813 28.859L186.33 28.654Z" fill="black"/>
<rect width="18" height="35" rx="3" fill="black"/>
<rect x="3" y="16" width="12" height="16" rx="2" fill="#FF4B4B"/>
</svg>
